# xmcd
#
# Track frame offsets: 
#        150
#        42936
#        66843
#        87898
#        134170
#        153787
#        178514
#        258127
#        266828
#        286486
#
# Disc length: 4721 seconds
#
# Revision: 0
# Processed by: cddbd v1.5.2PL0 Copyright (c) Steve Scherf et al.
# Submitted via: ExactAudioCopy v0.95b4
#
DISCID=8d126f0a
DTITLE=Green Hit - Green Hit
DYEAR=1900
DGENRE=Jazz+Funk
TTITLE0=The Fort
TTITLE1=Sippin' Brews
TTITLE2=Smiling Joe
TTITLE3=Jack Mackerel
TTITLE4=Wack Debbie
TTITLE5=Something
TTITLE6=Green Medicine
TTITLE7=Stone Groove
TTITLE8=Suwannee River Madness '06
TTITLE9=Deetour
EXTD=
EXTT0=
EXTT1=
EXTT2=
EXTT3=
EXTT4=
EXTT5=
EXTT6=
EXTT7=
EXTT8=
EXTT9=
PLAYORDER=
